<svg xmlns="http://www.w3.org/2000/svg" width="192.741" height="9.364" viewBox="0 0 192.741 9.364">
  <g id="Group_44" data-name="Group 44" transform="translate(-2.5 -18.376)">
    <path id="Union_3" data-name="Union 3" d="M570-39.772v-3.239H393.742v3.239a.5.5,0,0,1-.75.433L385.75-43.52a.5.5,0,0,1,0-.867l7.242-4.181a.5.5,0,0,1,.75.433v3.123H570v-3.123a.5.5,0,0,1,.75-.433l6.161,3.556H577v.052l.992.572a.5.5,0,0,1,0,.867l-7.242,4.181a.492.492,0,0,1-.249.068A.5.5,0,0,1,570-39.772Z" transform="translate(-383 67.011)" fill="#fff"/>
  </g>
</svg>
