<svg xmlns="http://www.w3.org/2000/svg" width="11.45" height="8.39" viewBox="0 0 11.45 8.39">
  <path id="_003-motor" data-name="003-motor" d="M10.6,41.085h-.457V40.045a.378.378,0,0,0-.379-.379h-2.4a.378.378,0,0,0-.379.379v1.041H4.463V40.045a.378.378,0,0,0-.378-.379h-2.4a.378.378,0,0,0-.379.379v1.041H.852A.853.853,0,0,0,0,41.937V47.2a.853.853,0,0,0,.852.851H10.6a.853.853,0,0,0,.852-.851V41.937A.853.853,0,0,0,10.6,41.085Zm-8.532-.662h1.64v.662H2.066Zm2.019,4.526h-2.4a.378.378,0,1,1,0-.757h2.4a.378.378,0,0,1,0,.757Zm3.659-4.526h1.64v.662H7.744Zm2.019,4.526h-.82v.82a.378.378,0,1,1-.757,0v-.82h-.82a.378.378,0,1,1,0-.757h.82v-.82a.378.378,0,0,1,.757,0v.82h.82a.378.378,0,1,1,0,.757Z" transform="translate(0 -39.666)" fill="#fff"/>
</svg>
