<svg xmlns="http://www.w3.org/2000/svg" xmlns:xlink="http://www.w3.org/1999/xlink" width="153.53" height="71.751" viewBox="0 0 153.53 71.751">
  <defs>
    <filter id="Path_38" x="63.819" y="0.9" width="35.106" height="68.847" filterUnits="userSpaceOnUse">
      <feOffset input="SourceAlpha"/>
      <feGaussianBlur stdDeviation="3" result="blur"/>
      <feFlood flood-color="#00ffce"/>
      <feComposite operator="in" in2="blur"/>
      <feComposite in="SourceGraphic"/>
    </filter>
    <filter id="Rectangle_92" x="66.929" y="4.702" width="28.885" height="60.813" filterUnits="userSpaceOnUse">
      <feOffset input="SourceAlpha"/>
      <feGaussianBlur stdDeviation="3" result="blur-2"/>
      <feFlood flood-color="#00ffce"/>
      <feComposite operator="in" in2="blur-2"/>
      <feComposite in="SourceGraphic"/>
    </filter>
  </defs>
  <g id="Group_35" data-name="Group 35" transform="translate(-6.152 -49.081)">
    <g id="Group_14" data-name="Group 14" transform="translate(78.972 58.981)">
      <g transform="matrix(1, 0, 0, 1, -72.82, -9.9)" filter="url(#Path_38)">
        <path id="Path_38-2" data-name="Path 38" d="M6.163,0H44.684a6.192,6.192,0,0,1,6.163,6.22v4.665a6.584,6.584,0,0,1-1.332,3.863,5.91,5.91,0,0,1-4.831,2.358H6.163A6.192,6.192,0,0,1,0,10.885V6.22A6.192,6.192,0,0,1,6.163,0Z" transform="translate(72.82 60.75) rotate(-90)" fill="rgba(0,255,206,0.6)" opacity="0.605"/>
      </g>
      <g transform="matrix(1, 0, 0, 1, -72.82, -9.9)" filter="url(#Rectangle_92)">
        <rect id="Rectangle_92-2" data-name="Rectangle 92" width="42.813" height="10.885" rx="4" transform="translate(75.93 56.51) rotate(-90)" fill="#00ffce"/>
      </g>
    </g>
    <g id="Car-White" transform="translate(6.352 120.638) rotate(-90)">
      <path id="Path_52" data-name="Path 52" d="M0,0A13.223,13.223,0,0,1,11.614,7.2c4.12,7.569,2.248,11.462,2.248,11.462" transform="translate(46.407 4.98)" fill="none" stroke="#fff" stroke-linecap="round" stroke-linejoin="round" stroke-width="0.4"/>
      <path id="Path_53" data-name="Path 53" d="M7.548,0S.054,16.786.054,43.66L0,60.445S-.259,79.7,4.149,74.332l2-2.6c.9-1.175,1.1-.9,1.1-6.392Z" transform="translate(55.019 44.142)" fill="none" stroke="#fff" stroke-linecap="round" stroke-linejoin="round" stroke-width="0.4"/>
      <path id="Path_54" data-name="Path 54" d="M5.769,0S0,21.132,0,43.162C0,67.59.725,70.413.725,70.413s.2,2.3,1.6,1c1.263-1.173,1.62-1.92,3.192-5.321" transform="translate(56.748 47.75)" fill="none" stroke="#fff" stroke-linecap="round" stroke-linejoin="round" stroke-width="0.4"/>
      <path id="Path_55" data-name="Path 55" d="M5.927.22a2.4,2.4,0,0,0-2.6.4c-1.054,1.1-3.648,3.2-3.3,5.1,0,0,.549,2.3,2.5.7s2.348-3.057,3.4-2.8Z" transform="translate(0 54.235)" fill="none" stroke="#fff" stroke-linecap="round" stroke-linejoin="round" stroke-width="0.4"/>
      <path id="Path_56" data-name="Path 56" d="M.009.756S1.993-.278,1.993.073c0,1.307-.249,3.761-.375,4.986C1.42,5.391,0,4.153,0,4.153" transform="translate(5.842 53.709)" fill="none" stroke="#fff" stroke-linecap="round" stroke-linejoin="round" stroke-width="0.4"/>
      <path id="Path_57" data-name="Path 57" d="M.9,0c.322,9.5.683,16.889.683,19.618,0,0-.1,36.869-1.161,43.362S.231,84.424,3.9,90.856c3.189,5.594,8.772,6.192,12.185,6.593a117.716,117.716,0,0,0,14.1,1.087h.066a117.824,117.824,0,0,0,14.1-1.087c3.413-.4,8.992-1,12.183-6.593,3.671-6.439,4.544-21.381,3.482-27.875s-1.163-43.362-1.163-43.362c0-2.731.358-10.122.683-19.618" transform="translate(5.458 46.883)" fill="none" stroke="#fff" stroke-linecap="round" stroke-linejoin="round" stroke-width="0.4"/>
      <path id="Path_58" data-name="Path 58" d="M.313,53.934C.122,47.687,0,40.993,0,34.316A54.813,54.813,0,0,1,4.832,11.833C10.253-1.448,29.783.051,29.783.051h.036s19.525-1.5,24.938,11.791a54.768,54.768,0,0,1,4.834,22.484c0,6.672-.124,13.367-.316,19.618" transform="translate(5.881 0.988)" fill="none" stroke="#fff" stroke-linecap="round" stroke-linejoin="round" stroke-width="0.4"/>
      <path id="Path_59" data-name="Path 59" d="M19.115,24.47a97.8,97.8,0,0,1-13.673-1.7C-1.3,21.37.126,16.285.126,16.285L2.878,0S7.137,1.5,19.1,1.5h.065C31.129,1.5,35.388,0,35.388,0l2.757,16.285s1.424,5.1-5.317,6.494a98.178,98.178,0,0,1-13.673,1.7Z" transform="translate(16.54 112.977)" fill="none" stroke="#fff" stroke-linecap="round" stroke-linejoin="round" stroke-width="0.4"/>
      <path id="Path_60" data-name="Path 60" d="M0,0S4.952,3.227,18.983,3.842h.036C33.049,3.227,38,0,38,0" transform="translate(16.672 131.381)" fill="none" stroke="#fff" stroke-linecap="round" stroke-linejoin="round" stroke-width="0.4"/>
      <path id="Path_61" data-name="Path 61" d="M18.009,45.051c-13.986,0-16.885-2.072-16.885-2.072s.6-12.214.6-20.107c0,0-.15-15.871-1.724-21.108C0,1.763,3.527,0,18.009,0h.04C32.535,0,36.055,1.763,36.055,1.763c-1.574,5.246-1.722,21.108-1.722,21.108,0,7.894.6,20.107.6,20.107s-2.9,2.072-16.885,2.072Z" transform="translate(18.44 67.699)" fill="none" stroke="#fff" stroke-linecap="round" stroke-linejoin="round" stroke-width="0.4"/>
      <path id="Path_62" data-name="Path 62" d="M22.231,34.457s-8.579-.132-14.585,1.276c-2.515.591-2.8-1.276-2.8-1.276S-2.905,10.351,1.2,6.855,13.532,0,22.231,0h.036c8.7,0,16.924,3.357,21.036,6.855S39.647,34.47,39.647,34.47s-.281,1.86-2.793,1.27c-6.008-1.409-14.585-1.283-14.585-1.283Z" transform="translate(13.424 32.441)" fill="none" stroke="#fff" stroke-linecap="round" stroke-linejoin="round" stroke-width="0.4"/>
      <path id="Path_63" data-name="Path 63" d="M0,9.816s-.211-3,4.877-5.471A42.771,42.771,0,0,1,22.159,0h.082A42.771,42.771,0,0,1,39.523,4.345C44.612,6.816,44.4,9.816,44.4,9.816" transform="translate(13.473 34.969)" fill="none" stroke="#fff" stroke-linecap="round" stroke-linejoin="round" stroke-width="0.4"/>
      <path id="Path_64" data-name="Path 64" d="M0,20.8S2.862,5.742,9.931,2.2A20.065,20.065,0,0,1,18.948,0h.036A20.035,20.035,0,0,1,28,2.2c7.071,3.547,9.933,18.608,9.933,18.608" transform="translate(16.708 5.331)" fill="none" stroke="#fff" stroke-linecap="round" stroke-linejoin="round" stroke-width="0.4"/>
      <path id="Path_65" data-name="Path 65" d="M0,37.467A91.261,91.261,0,0,1,2.99,18.16C8.27-1.445,26.905.025,26.905.025h.083S45.626-1.445,50.912,18.16a91.412,91.412,0,0,1,2.976,19.307" transform="translate(8.726 2.813)" fill="none" stroke="#fff" stroke-linecap="round" stroke-linejoin="round" stroke-width="0.4"/>
      <path id="Path_66" data-name="Path 66" d="M14.281,0A13.218,13.218,0,0,0,2.671,7.189C-1.445,14.75.423,18.651.423,18.651" transform="translate(10.655 4.98)" fill="none" stroke="#fff" stroke-linecap="round" stroke-linejoin="round" stroke-width="0.4"/>
      <path id="Path_67" data-name="Path 67" d="M0,0S7.495,16.786,7.495,43.66l.048,16.785S7.808,79.7,3.4,74.332l-2-2.6c-.9-1.175-1.1-.9-1.1-6.392Z" transform="translate(8.779 44.142)" fill="none" stroke="#fff" stroke-linecap="round" stroke-linejoin="round" stroke-width="0.4"/>
      <path id="Path_68" data-name="Path 68" d="M0,0S5.771,21.132,5.771,43.162c0,24.428-.725,27.251-.725,27.251s-.2,2.3-1.6,1c-1.265-1.173-1.62-1.92-3.192-5.321" transform="translate(8.83 47.75)" fill="none" stroke="#fff" stroke-linecap="round" stroke-linejoin="round" stroke-width="0.4"/>
      <path id="Path_69" data-name="Path 69" d="M1.531,0A70.3,70.3,0,0,0,0,13.387c0,6.589,3.633,13.887,6.882,14.588,3.536.761,7.932,1.1,15,1.1h.228c7.072,0,11.468-.339,15-1.1,3.249-.7,6.88-7.993,6.88-14.588A70.3,70.3,0,0,0,42.468,0" transform="translate(13.675 121.196)" fill="none" stroke="#fff" stroke-linecap="round" stroke-linejoin="round" stroke-width="0.4"/>
      <path id="Path_70" data-name="Path 70" d="M9.711,12.538C-1.549,13.64.082,0,.082,0S1.57,6.154,9.5,12.326c2.907,2.262,9.393,2.96,17.159,2.96H26.7c7.768,0,14.252-.7,17.161-2.96C51.788,6.154,53.275,0,53.275,0s1.638,13.638-9.629,12.538" transform="translate(8.995 137.843)" fill="none" stroke="#fff" stroke-linecap="round" stroke-linejoin="round" stroke-width="0.4"/>
      <path id="Path_71" data-name="Path 71" d="M0,1.64A2.331,2.331,0,0,1,1.968.1C2.947.11,9.417,0,9.417,0h.031s6.47.11,7.446.11a2.318,2.318,0,0,1,1.962,1.543" transform="translate(26.937)" fill="none" stroke="#fff" stroke-linecap="round" stroke-linejoin="round" stroke-width="0.4"/>
      <path id="Path_72" data-name="Path 72" d="M.009,3.617c1.049-.26,1.448,1.2,3.4,2.8s2.5-.7,2.5-.7c.35-1.9-2.244-4-3.306-5.1A2.4,2.4,0,0,0,0,.22Z" transform="translate(65.428 54.195)" fill="none" stroke="#fff" stroke-linecap="round" stroke-linejoin="round" stroke-width="0.4"/>
      <path id="Path_73" data-name="Path 73" d="M1.993,4.153S.573,5.391.375,5.059C.251,3.833,0,1.38,0,.073,0-.278,1.984.756,1.984.756" transform="translate(63.444 53.67)" fill="none" stroke="#fff" stroke-linecap="round" stroke-linejoin="round" stroke-width="0.4"/>
    </g>
  </g>
</svg>
