<svg xmlns="http://www.w3.org/2000/svg" width="8.758" height="15.341" viewBox="0 0 8.758 15.341"><g transform="translate(-165.996 -60)"><g transform="translate(69.288 4)"><path d="M73.466,1.952v.654H70.933V1.952ZM72.4,3.377H70.933v.654H72.4ZM70.933,5.455h2.533V4.8H70.933Zm1.471.771H70.933v.654H72.4ZM70.933,8.306h2.533V7.652H70.933Zm.395,3.725a3.31,3.31,0,1,1-4.985-2.852v-7.5a1.675,1.675,0,1,1,3.351,0v7.5A3.293,3.293,0,0,1,71.328,12.031Zm-.654,0a2.644,2.644,0,0,0-1.456-2.367l-.179-.091v-7.9a1.022,1.022,0,0,0-2.043,0v7.9l-.179.091a2.655,2.655,0,1,0,3.856,2.367Zm-.545,0a2.111,2.111,0,1,1-2.655-2.037l.121-.032V2.694h.844V9.961l.121.033A2.111,2.111,0,0,1,70.129,12.031Zm-2.007-1.407a.422.422,0,0,0-.5-.318,1.736,1.736,0,0,0-1.359,1.7.422.422,0,0,0,.843,0,.907.907,0,0,1,.7-.879A.424.424,0,0,0,68.122,10.624Z" transform="translate(32 56)" fill="#fff"/></g><path d="M3362.334,5035.1h0l-1.142.387-.645.563-.116.586v.97l.691.1.965-.472.673-1.035s.2-.647,0-.573" transform="translate(-3193 -4965)" fill="#fff"/></g></svg>