<svg xmlns="http://www.w3.org/2000/svg" width="12" height="11.945" viewBox="0 0 12 11.945"><path d="M4.142,2.89,3.16,1.914l-.769.769.976.976ZM2.636,5.977H1V7.068H2.636ZM7.545.55H6.455V2.159H7.545V.55Zm4.064,2.133-.769-.769-.976.976.769.769ZM9.858,10.155l.976.982.769-.769-.982-.976-.764.764Zm1.505-4.178V7.068H13V5.977ZM7,3.25a3.273,3.273,0,1,0,3.273,3.273A3.275,3.275,0,0,0,7,3.25ZM6.455,12.5H7.545V10.886H6.455ZM2.391,10.363l.769.769.976-.982-.769-.769Z" transform="translate(-1 -0.55)" fill="#fff"/></svg>